<svg width="50" height="50" viewBox="0 0 50 50" fill="none" xmlns="http://www.w3.org/2000/svg">
<path d="M24.9994 4.16797C13.4993 4.16797 4.16602 13.5013 4.16602 25.0013C4.16602 36.5013 13.4993 45.8346 24.9994 45.8346C36.4994 45.8346 45.8327 36.5013 45.8327 25.0013C45.8327 13.5013 36.4994 4.16797 24.9994 4.16797ZM24.9994 10.418C28.4577 10.418 31.2494 13.2096 31.2494 16.668C31.2494 20.1263 28.4577 22.918 24.9994 22.918C21.541 22.918 18.7494 20.1263 18.7494 16.668C18.7494 13.2096 21.541 10.418 24.9994 10.418ZM24.9994 40.0013C19.791 40.0013 15.1868 37.3346 12.4993 33.293C12.5618 29.1471 20.8327 26.8763 24.9994 26.8763C29.1452 26.8763 37.4369 29.1471 37.4994 33.293C34.8119 37.3346 30.2077 40.0013 24.9994 40.0013Z"/>
</svg>
