<?xml version="1.0" encoding="utf-8"?>
<svg version="1.1" id="Layer_1" xmlns="http://www.w3.org/2000/svg" xmlns:xlink="http://www.w3.org/1999/xlink" x="0px" y="0px"
	 viewBox="0 0 512 512" style="enable-background:new 0 0 512 512;" xml:space="preserve">
	<path id="XMLID_4_" class="st0" d="M512,227.6v56.8c0,2.8-0.9,4.7-2.8,6.5c-1.9,1.9-3.7,2.8-6.5,2.8H133.1v66.1
		c0,3.7-1.9,7.4-5.6,8.4c-3.7,1.9-7.4,0.9-10.2-1.9L2.8,263.9c-1.9-1.9-2.8-4.7-2.8-6.5c0-2.8,0.9-5.6,2.8-7.4l113.6-104.3
		c2.8-2.8,6.5-3.7,10.2-1.9c3.7,1.9,5.6,4.7,5.6,8.4v66.1h369.6c2.8,0,4.7,0.9,6.5,2.8C511.1,223,512,224.8,512,227.6z"/>
</svg>
