<svg version="1.1" xmlns="http://www.w3.org/2000/svg" width="320" height="448" viewBox="0 0 320 448">
<path d="M160 226.75c-62.5 0-113.5-50.75-113.5-113.25 0-62.75 51-113.5 113.5-113.5s113.5 50.75 113.5 113.5c0 62.5-51 113.25-113.5 113.25zM160 57.5c-30.75 0-55.75 25-55.75 56 0 30.75 25 55.75 55.75 55.75s55.75-25 55.75-55.75c0-31-25-56-55.75-56zM290.75 240.5c11 22.5-1.5 33.25-30 51.75-24 15.25-57 21.25-78.75 23.5l18.25 18 66.75 66.75c10 10.25 10 26.75 0 36.75l-3 3.25c-10.25 10-26.75 10-37 0-16.75-17-41.25-41.5-66.75-67l-66.75 67c-10.25 10-26.75 10-36.75 0l-3-3.25c-10.25-10-10.25-26.5 0-36.75 17-17 41.25-41.5 66.75-66.75l18-18c-21.5-2.25-55-8-79.25-23.5-28.5-18.5-41-29.25-30-51.75 6.5-12.75 24.25-23.5 47.75-5 0 0 31.75 25.25 83 25.25s83-25.25 83-25.25c23.5-18.5 41.25-7.75 47.75 5z"></path>
</svg>
