<svg version="1.1" xmlns="http://www.w3.org/2000/svg" width="448" height="448" viewBox="0 0 448 448">
<path d="M395.5 145.5c0 33.75-27.5 61-61 61-33.75 0-61-27.25-61-61s27.25-61 61-61c33.5 0 61 27.25 61 61zM203 331c0-34.75-27.75-62.5-62.5-62.5-4.5 0-9 0.5-13.5 1.5l26 10.5c25.5 10.25 38 39 27.75 64.5s-39.25 38-64.75 27.5c-10.25-4-20.5-8.25-30.75-12.25 10.5 19.75 31.25 33.25 55.25 33.25 34.75 0 62.5-27.75 62.5-62.5zM410.5 145.75c0-42-34.25-76.25-76.25-76.25-42.25 0-76.5 34.25-76.5 76.25 0 42.25 34.25 76.25 76.5 76.25 42 0 76.25-34 76.25-76.25zM448 145.75c0 63-51 113.75-113.75 113.75l-109.25 79.75c-4 43-40.5 76.75-84.5 76.75-40.5 0-74.75-28.75-83-67l-57.5-23v-107.25l97.25 39.25c12.75-7.75 27.5-12 43.25-12 3 0 6 0.25 8.75 0.5l71-101.75c0.5-62.25 51.5-112.75 114-112.75 62.75 0 113.75 51 113.75 113.75z"></path>
</svg>
